HIERARCHY
ROOT Hips
{
   OFFSET 0.00000 0.00000 0.00000
   CHANNELS 6 Xposition Yposition Zposition Zrotation Xrotation Yrotation
   JOINT RightUpLeg
   {
      OFFSET -7.156640 -6.933656 0.081322
      CHANNELS 3 Zrotation Xrotation Yrotation
      JOINT RightLeg
      {
         OFFSET 0.000000 -35.538158 1.098160
         CHANNELS 3 Zrotation Xrotation Yrotation
         JOINT RightFoot
         {
            OFFSET 0.202839 -33.673920 -1.168472
            CHANNELS 3 Zrotation Xrotation Yrotation
            JOINT RightToes
            {
               OFFSET 0.032000 -3.532072 6.799280
               CHANNELS 3 Zrotation Xrotation Yrotation
               End Site
               {
                  OFFSET -0.064000 -0.109958 7.823832
               }
            }
         }
      }
   }
   JOINT Spine
   {
      OFFSET 0.000000 9.512400 0.000000
      CHANNELS 3 Zrotation Xrotation Yrotation
      JOINT Spine1
      {
         OFFSET 0.000000 20.525920 0.102130
         CHANNELS 3 Zrotation Xrotation Yrotation
         JOINT HEad
         {
            OFFSET 0.000000 6.987328 0.009073
            CHANNELS 3 Zrotation Xrotation Yrotation
            End Site
            {
               OFFSET -0.232000 10.219360 2.011160
            }
         }
         JOINT LeftShoulder1
         {
            OFFSET 7.192000 -0.289802 -0.176000
            CHANNELS 3 Zrotation Xrotation Yrotation
            JOINT LeftArm
            {
               OFFSET 8.226160 -0.002704 0.257698
               CHANNELS 3 Zrotation Xrotation Yrotation
               JOINT LeftForeArm
               {
                  OFFSET 26.213519 0.079315 -1.139472
                  CHANNELS 3 Zrotation Xrotation Yrotation
                  JOINT LeftHand
                  {
                     OFFSET 22.051441 0.068290 0.817728
                     CHANNELS 3 Zrotation Xrotation Yrotation
                     End Site
                     {
                        OFFSET 13.395442 -0.480000 1.202328
                     }
                  }
               }
            }
         }
         JOINT RightShoulder
         {
            OFFSET -7.192000 -0.289802 -0.176000
            CHANNELS 3 Zrotation Xrotation Yrotation
            JOINT RightArm
            {
               OFFSET -8.226160 -0.002704 0.257698
               CHANNELS 3 Zrotation Xrotation Yrotation
               JOINT RightForeArm
               {
                  OFFSET -26.317679 0.079315 -1.139472
                  CHANNELS 3 Zrotation Xrotation Yrotation
                  JOINT RightHand
                  {
                     OFFSET -21.993682 0.068290 0.817728
                     CHANNELS 3 Zrotation Xrotation Yrotation
                     End Site
                     {
                        OFFSET -13.304962 -0.480000 1.202328
                     }
                  }
               }
            }
         }
      }
   }
   JOINT LeftUpLeg
   {
      OFFSET 7.156640 -6.933656 0.081322
      CHANNELS 3 Zrotation Xrotation Yrotation
      JOINT LeftLeg
      {
         OFFSET 0.000000 -35.538158 1.098160
         CHANNELS 3 Zrotation Xrotation Yrotation
         JOINT LeftFoot
         {
            OFFSET -0.202839 -33.673920 -1.168472
            CHANNELS 3 Zrotation Xrotation Yrotation
            JOINT LeftToes
            {
               OFFSET -0.032000 -3.532072 6.799280
               CHANNELS 3 Zrotation Xrotation Yrotation
               End Site
               {
                  OFFSET 0.064000 -0.037958 7.823832
               }
            }
         }
      }
   }
}
MOTION
Frames: 10
Frame Time: 0.016667
44.5513 95.4152 -121.492 -0.274774 0.729082 -17.6365 -10.7626 -13.1982 -9.2905 -23.5066 50.0724 17.318 25.2477 0.181693 1.62171 0.0462049 0.000533403 0.662642 -1.17938 17.201 5.21515 -4.72868e-007 0.0143599 -4.7364e-009 -16.5354 7.98525 25.0713 -7.95139e-016 3.18055e-015 -3.18055e-015 170.965 -25.3643 -168.33 -125.785 35.2949 -2.08182 6.77544 29.18 -1.91421 7.94453 6.24919 7.93864 128.198 -17.6443 99.8499 102.696 50.3773 12.463 -5.17617 30.4444 1.16341 -12.3094 -35.313 5.88062 38.5226 34.6333 -33.0635 30.4452 -2.80454 1.6126 -3.36951e-008 1.56033e-007 -4.88727e-009 
43.4146 93.9925 -122.451 -0.208089 0.299463 -17.748 -9.83554 -14.7946 -9.85615 -23.3184 55.6541 16.075 15.6984 -0.115298 0.644021 0.0462049 0.000533403 0.662642 -1.33312 17.9347 5.59443 -4.72868e-007 0.0143599 -4.7364e-009 -16.2428 7.23027 24.4237 -0 0 3.18055e-015 170.675 -24.6077 -167.911 -126.985 34.742 -1.70172 6.92557 29.0987 -1.87307 7.74104 5.86696 7.4455 128.471 -18.3005 100.418 104.004 50.2752 12.2933 -5.26369 30.4728 1.06342 -9.95648 -35.8992 6.05864 35.8058 36.375 -32.4886 36.0987 -1.82216 1.6001 -3.36952e-008 1.56033e-007 -4.88727e-009 
41.7511 92.2405 -123.975 -0.298789 -0.203743 -17.8463 -10.2869 -16.4119 -10.3817 -22.0743 61.7614 13.5223 13.8336 0.717802 0.773307 0.0462049 0.000533403 0.662642 -1.54744 18.5723 5.96762 -4.72868e-007 0.0143484 -4.7364e-009 -15.8043 6.49942 23.8208 -7.95139e-016 0 -1.59028e-015 170.693 -24.1611 -167.24 -127.999 34.132 -1.32895 7.02161 29.1251 -1.73705 7.5085 5.51819 6.92587 128.932 -18.8642 101.127 105.317 50.2221 12.1128 -5.29452 30.3944 0.968293 -6.82876 -36.8918 5.54609 32.5922 39.084 -31.8934 41.3182 -0.580472 1.73507 -3.36952e-008 1.56033e-007 -4.88727e-009 
39.4831 90.0929 -126.157 -0.666324 -0.520514 -17.8119 -10.5363 -19.1108 -11.7643 -20.3627 69.4605 9.92846 7.65559 0.656311 0.832811 0.0462049 0.000533403 0.662642 -1.81969 19.1014 6.33561 -4.72868e-007 0.0143164 -4.73639e-009 -15.2097 5.79598 23.2893 -7.95139e-016 0 -1.59028e-015 171.008 -24.0432 -166.409 -128.78 33.4997 -1.00248 7.03636 29.1816 -1.58111 7.27175 5.16907 6.39321 129.537 -19.3179 101.91 106.594 50.2253 11.9242 -5.39491 30.279 0.900547 -2.75201 -38.628 4.10251 28.6651 42.8392 -31.02 45.9932 0.849589 2.04327 -3.36952e-008 1.56033e-007 -4.88726e-009 
36.7066 87.6376 -128.921 -1.26743 -0.679043 -17.6549 -11.2107 -22.2868 -13.7874 -13.405 77.8554 0.119468 0.6209 0.247033 1.15938 0.0462049 0.000533403 0.662642 -2.15465 19.5142 6.69084 -4.72868e-007 0.0142682 -4.7364e-009 -14.4625 5.14102 22.8583 -0 0 1.59028e-015 171.594 -24.2819 -165.511 -129.3 32.8858 -0.761472 6.98223 29.3398 -1.36395 7.05255 4.79985 5.85574 130.238 -19.6484 102.698 107.786 50.2889 11.7429 -5.50344 30.0813 0.841628 2.37773 -40.9204 1.93648 23.1031 47.2349 -29.0065 50.2094 2.42008 2.38939 -3.36952e-008 1.56033e-007 -4.88728e-009 
33.6358 85.1466 -132.112 -2.06281 -0.683603 -17.4016 -12.4019 -25.3301 -16.0243 7.0904 84.4053 -22.6786 -3.18999 -0.829405 1.90234 0.0462049 0.000533403 0.662642 -2.502 19.4148 6.77704 -4.72868e-007 0.0142077 -4.73639e-009 -13.5972 4.86692 22.8882 5.29669e-031 9.54166e-015 -3.18055e-015 172.281 -25.2315 -164.965 -129.552 32.3338 -0.636673 6.85213 29.5468 -1.15166 6.87014 4.79733 5.59347 130.988 -19.8898 103.474 108.821 50.4165 11.5948 -5.67502 29.8514 0.804656 7.74223 -43.3046 -0.237753 16.4418 50.7119 -26.0846 54.0936 4.24044 2.4033 -3.36952e-008 1.56033e-007 -4.88727e-009 
30.1868 82.9508 -135.776 -2.9788 -0.554958 -17.0948 -14.2151 -27.6607 -18.1686 85.5686 84.7707 -102.706 -7.28911 -2.54129 2.24786 0.0462049 0.000533403 0.662642 -2.8429 18.8622 6.62104 -4.72868e-007 0.0141391 -4.7364e-009 -12.6969 4.99071 23.3737 3.97569e-016 3.18055e-015 1.59028e-015 172.859 -26.9377 -164.994 -129.543 31.9158 -0.778953 6.59728 30.14 -0.675441 6.72808 4.85652 5.56294 131.598 -20.1584 103.981 109.546 50.6225 11.6394 -5.82018 29.6703 0.749952 14.1339 -44.8577 -2.66673 7.05945 51.9284 -20.5971 57.4371 6.23703 2.06124 -3.36952e-008 1.56033e-007 -4.88727e-009 
26.6072 81.0964 -139.76 -3.97343 -0.282041 -16.7383 -16.0886 -29.4192 -20.0879 114.062 80.1045 -132.406 -11.4359 -4.56908 2.25167 0.0462049 0.000533403 0.662642 -3.10118 17.9032 6.24845 -4.72868e-007 0.0140664 -4.7364e-009 -11.8414 5.48519 24.2468 3.97569e-016 0 -1.59028e-015 173.243 -29.2768 -165.539 -129.338 31.6365 -1.11739 6.36261 30.388 -0.577423 6.62404 5.18352 5.91661 132.088 -20.396 104.538 109.941 50.9078 11.8012 -5.88504 29.3409 0.653353 21.0332 -44.7969 -5.47021 -1.90798 47.5346 -14.4621 59.1932 8.59828 1.19565 -3.36952e-008 1.56033e-007 -4.88727e-009 
22.894 79.6249 -144.006 -4.97309 0.128112 -16.3127 -18.0597 -30.6071 -21.4736 123.496 75.2213 -142.553 -13.2972 -6.78466 2.12954 0.0462049 0.000533403 0.662642 -3.23427 16.5912 5.6652 -4.72868e-007 0.0139938 -4.7364e-009 -11.1173 6.31335 25.4465 1.19271e-015 3.18055e-015 -0 173.327 -32.1076 -166.527 -129.032 31.5018 -1.58988 6.14125 30.7933 -0.46622 6.53747 5.74795 6.68225 132.421 -20.626 105.182 110.022 51.2759 12.0696 -5.93076 29.0232 0.692713 27.5444 -42.4167 -8.8243 -7.20291 37.1973 -10.1249 59.8789 12.3237 -0.530749 -3.36952e-008 1.56033e-007 -4.88727e-009 
19.0879 78.4622 -148.348 -5.90958 0.646562 -15.8113 -19.6654 -31.3689 -22.2719 128.941 70.7087 -148.496 -14.236 -9.43718 1.77578 0.0462049 0.000533403 0.662642 -3.30513 15.3209 5.23619 -4.72868e-007 0.0139251 -4.73639e-009 -10.5029 7.1544 26.5394 -1.19271e-015 -3.18055e-015 -4.77083e-015 173.308 -34.9874 -167.454 -128.709 31.5034 -2.12732 6.01393 30.9015 -0.590838 6.50244 6.18138 7.5202 132.58 -20.8271 105.917 109.869 51.7262 12.4123 -5.85458 28.5998 0.683139 32.8426 -37.1761 -12.8233 -8.12277 22.3638 -9.0394 60.3295 18.2187 -3.56726 -3.36952e-008 1.56033e-007 -4.88727e-009 
